<!-- icon666.com - MILLIONS vector ICONS FREE --><svg id="object" viewBox="0 0 100 100" xmlns="http://www.w3.org/2000/svg" xmlns:xlink="http://www.w3.org/1999/xlink"><linearGradient id="New_Gradient_Swatch_4" gradientUnits="userSpaceOnUse" x1="50" x2="50" y1="94.918" y2="5.081"><stop offset="0" stop-color="#020088"></stop><stop offset=".261" stop-color="#1f49ae"></stop><stop offset=".521" stop-color="#3a8bd1"></stop><stop offset=".74" stop-color="#4ebbea"></stop><stop offset=".906" stop-color="#5ad9f9"></stop><stop offset="1" stop-color="#5ee4ff"></stop></linearGradient><g id="_09" data-name="09"><path d="m57.965 36.646a1 1 0 0 0 -.913-.125l-20.113 7.189a1 1 0 0 0 -.663.942v16.738a6.707 6.707 0 0 0 -3.6-1.326 11.264 11.264 0 0 0 -6.476 1.583c-4.413 2.548-6.487 7.249-4.624 10.478a6.326 6.326 0 0 0 5.709 2.834 11.494 11.494 0 0 0 5.677-1.6c3.587-2.071 5.629-5.563 5.267-8.532.023-.084.052-11.94.052-11.94l18.113-6.474v7.787a6.711 6.711 0 0 0 -3.6-1.326 11.214 11.214 0 0 0 -6.477 1.583c-4.414 2.549-6.489 7.249-4.624 10.477a6 6 0 0 0 4.907 2.817c.258.023.518.034.782.034a11.548 11.548 0 0 0 5.7-1.617c3.588-2.071 5.629-5.563 5.268-8.532.023-.084.052-20.174.052-20.174a1 1 0 0 0 -.437-.816zm-26.008 34.98c-3.4 1.963-7.363 1.733-8.653-.5s.492-5.783 3.891-7.746a9.544 9.544 0 0 1 4.691-1.349q.311 0 .615.027a4.075 4.075 0 0 1 3.348 1.824c1.291 2.234-.492 5.781-3.892 7.744zm6.319-20.863v-5.406l18.113-6.474v5.4zm13.793 13.674a9.25 9.25 0 0 1 -5.3 1.323 4.079 4.079 0 0 1 -3.348-1.825c-1.291-2.235.491-5.782 3.892-7.745a9.54 9.54 0 0 1 4.687-1.349q.312 0 .616.027a4.075 4.075 0 0 1 3.348 1.824c1.288 2.235-.494 5.782-3.895 7.745zm32.959-23.564-59.517-34.363a10.54 10.54 0 0 0 -15.811 9.128v68.724a10.518 10.518 0 0 0 15.811 9.128l59.517-34.363a10.538 10.538 0 0 0 0-18.254zm-1 16.522-59.517 34.362a8.539 8.539 0 0 1 -12.809-7.4v-68.719a8.52 8.52 0 0 1 12.809-7.395l59.517 34.362a8.539 8.539 0 0 1 0 14.79zm-63.772-46.311a4.564 4.564 0 0 0 -4.556 4.554v11.805a1 1 0 0 1 -2 0v-11.805a6.569 6.569 0 0 1 6.554-6.554 1 1 0 0 1 0 2zm-4.556 21.273v8.62a1 1 0 0 1 -2 0v-8.62a1 1 0 0 1 2 0z" fill="url(#New_Gradient_Swatch_4)"></path></g></svg>