<svg width="100" height="100" viewBox="0 0 100 100" fill="none" xmlns="http://www.w3.org/2000/svg">
<path d="M34.1875 74.75C31.7125 74.75 29.6042 73.8792 27.8625 72.1375C26.1208 70.3958 25.25 68.2875 25.25 65.8125C25.25 63.3375 26.1208 61.2292 27.8625 59.4875C29.6042 57.7458 31.7125 56.875 34.1875 56.875H39V43.125H34.1875C31.7125 43.125 29.6042 42.2542 27.8625 40.5125C26.1208 38.7708 25.25 36.6625 25.25 34.1875C25.25 31.7125 26.1208 29.6042 27.8625 27.8625C29.6042 26.1208 31.7125 25.25 34.1875 25.25C36.6625 25.25 38.7708 26.1208 40.5125 27.8625C42.2542 29.6042 43.125 31.7125 43.125 34.1875V39H56.875V34.1875C56.875 31.7125 57.7458 29.6042 59.4875 27.8625C61.2292 26.1208 63.3375 25.25 65.8125 25.25C68.2875 25.25 70.3958 26.1208 72.1375 27.8625C73.8792 29.6042 74.75 31.7125 74.75 34.1875C74.75 36.6625 73.8792 38.7708 72.1375 40.5125C70.3958 42.2542 68.2875 43.125 65.8125 43.125H61V56.875H65.8125C68.2875 56.875 70.3958 57.7458 72.1375 59.4875C73.8792 61.2292 74.75 63.3375 74.75 65.8125C74.75 68.2875 73.8792 70.3958 72.1375 72.1375C70.3958 73.8792 68.2875 74.75 65.8125 74.75C63.3375 74.75 61.2292 73.8792 59.4875 72.1375C57.7458 70.3958 56.875 68.2875 56.875 65.8125V61H43.125V65.8125C43.125 68.2875 42.2542 70.3958 40.5125 72.1375C38.7708 73.8792 36.6625 74.75 34.1875 74.75V74.75ZM34.1875 70.625C35.5167 70.625 36.651 70.1552 37.5906 69.2156C38.5302 68.276 39 67.1417 39 65.8125V61H34.1875C32.8583 61 31.724 61.4698 30.7844 62.4094C29.8448 63.349 29.375 64.4833 29.375 65.8125C29.375 67.1417 29.8448 68.276 30.7844 69.2156C31.724 70.1552 32.8583 70.625 34.1875 70.625ZM65.8125 70.625C67.1417 70.625 68.276 70.1552 69.2156 69.2156C70.1552 68.276 70.625 67.1417 70.625 65.8125C70.625 64.4833 70.1552 63.349 69.2156 62.4094C68.276 61.4698 67.1417 61 65.8125 61H61V65.8125C61 67.1417 61.4698 68.276 62.4094 69.2156C63.349 70.1552 64.4833 70.625 65.8125 70.625ZM43.125 56.875H56.875V43.125H43.125V56.875ZM34.1875 39H39V34.1875C39 32.8583 38.5302 31.724 37.5906 30.7844C36.651 29.8448 35.5167 29.375 34.1875 29.375C32.8583 29.375 31.724 29.8448 30.7844 30.7844C29.8448 31.724 29.375 32.8583 29.375 34.1875C29.375 35.5167 29.8448 36.651 30.7844 37.5906C31.724 38.5302 32.8583 39 34.1875 39ZM61 39H65.8125C67.1417 39 68.276 38.5302 69.2156 37.5906C70.1552 36.651 70.625 35.5167 70.625 34.1875C70.625 32.8583 70.1552 31.724 69.2156 30.7844C68.276 29.8448 67.1417 29.375 65.8125 29.375C64.4833 29.375 63.349 29.8448 62.4094 30.7844C61.4698 31.724 61 32.8583 61 34.1875V39Z" fill="#fff"/>
</svg>
